<svg width="20" height="20" viewBox="0 0 20 20" fill="none" xmlns="http://www.w3.org/2000/svg">
<path d="M13.5996 5.91046e-07C15.8398 5.91046e-07 16.9608 -0.000426471 17.8164 0.435547C18.5689 0.819016 19.181 1.43109 19.5645 2.18359C20.0004 3.03924 20 4.16018 20 6.40039V13.5996C20 15.8398 20.0004 16.9608 19.5645 17.8164C19.181 18.5689 18.5689 19.181 17.8164 19.5645C16.9608 20.0004 15.8398 20 13.5996 20H6.40039C4.16018 20 3.03924 20.0004 2.18359 19.5645C1.43109 19.181 0.819016 18.5689 0.435547 17.8164C-0.000426471 16.9608 5.91046e-07 15.8398 5.91046e-07 13.5996V6.40039C5.91046e-07 4.16018 -0.000426471 3.03924 0.435547 2.18359C0.819016 1.43109 1.43109 0.819016 2.18359 0.435547C3.03924 -0.000426471 4.16018 5.91046e-07 6.40039 5.91046e-07H13.5996ZM12.9258 9.63867C12.7253 9.33802 12.2819 9.34266 12.0879 9.64746L9.36231 13.9307C9.18204 14.2139 8.77906 14.2422 8.56055 13.9873L6.43945 11.5127C6.22094 11.2578 5.81796 11.2861 5.6377 11.5693L2.98926 15.7314C2.77744 16.0643 3.01659 16.5 3.41113 16.5H16.5654C16.9648 16.5 17.203 16.0549 16.9814 15.7227L12.9258 9.63867Z" fill="white"/>
</svg>
