<svg preserveAspectRatio="none" overflow="visible" style="display: block;" width="103" height="16.0809" viewBox="0 0 103 16.0809" fill="none" xmlns="http://www.w3.org/2000/svg">
<g id="Group 3436">
<g id="Group">
<path id="rect19" d="M16.5048 1.71973H9.46875V14.3606H16.5048V1.71973Z" fill="#FF5A00"/>
<path id="XMLID_330_" d="M9.93995 8.04043C9.93995 5.47218 11.1473 3.19275 13 1.71998C11.6365 0.647918 9.91653 0 8.04043 0C3.59608 0 0 3.59608 0 8.04043C0 12.4848 3.59608 16.0809 8.04043 16.0809C9.91653 16.0809 11.6365 15.4329 13 14.3609C11.1447 12.9089 9.93995 10.6087 9.93995 8.04043Z" fill="#EB001B"/>
<path id="path22" d="M26 8.04043C26 12.4848 22.4039 16.0809 17.9596 16.0809C16.0835 16.0809 14.3635 15.4329 13 14.3609C14.8761 12.8855 16.06 10.6087 16.06 8.04043C16.06 5.47218 14.8527 3.19275 13 1.71998C14.3609 0.647918 16.0809 0 17.957 0C22.4039 0 26 3.6195 26 8.04043Z" fill="#F79E1B"/>
</g>
<g id="Mastercard">
<path d="M53.4444 11.7047V8.36873C53.4444 7.09111 52.6687 6.2571 51.3465 6.2571C50.6766 6.2571 49.9714 6.48779 49.4602 7.19757C49.0723 6.59425 48.5258 6.2571 47.6973 6.2571C47.1508 6.2571 46.5866 6.41681 46.1459 7.03787V6.36357H45V11.7047H46.1635V8.75911C46.1635 7.81864 46.6571 7.37502 47.4328 7.37502C48.2085 7.37502 48.5964 7.87187 48.5964 8.75911V11.7047H49.7599V8.75911C49.7599 7.81864 50.3064 7.37502 51.0292 7.37502C51.8049 7.37502 52.1927 7.87187 52.1927 8.75911V11.7047H53.4444ZM70.6328 6.36357H68.7465V4.7488H67.583V6.36357H66.5252V7.42825H67.583V9.87703C67.583 11.1014 68.0766 11.8289 69.3988 11.8289C69.8924 11.8289 70.4565 11.6692 70.8267 11.4386L70.4918 10.4449C70.1568 10.6755 69.769 10.7288 69.5046 10.7288C68.9581 10.7288 68.7289 10.3916 68.7289 9.84153V7.446H70.6152V6.36357H70.6328ZM80.4523 6.2571C79.7824 6.2571 79.3416 6.59426 79.0772 7.03787V6.36357H77.9137V11.7047H79.0772V8.70588C79.0772 7.81864 79.465 7.32178 80.1878 7.32178C80.417 7.32178 80.6815 7.37502 80.9106 7.42825L81.2456 6.31034C81.0164 6.25711 80.6815 6.2571 80.4523 6.2571ZM65.5909 6.80719C65.0444 6.41681 64.2687 6.2571 63.4401 6.2571C62.1179 6.2571 61.2365 6.9314 61.2365 7.97834C61.2365 8.86558 61.9064 9.36243 63.0523 9.53987L63.5988 9.59311C64.1982 9.69958 64.5331 9.87703 64.5331 10.1432C64.5331 10.5336 64.0924 10.8175 63.3167 10.8175C62.541 10.8175 61.9416 10.5336 61.5538 10.2674L61.0073 11.1546C61.6067 11.5983 62.4353 11.8289 63.2638 11.8289C64.8152 11.8289 65.6967 11.1014 65.6967 10.1077C65.6967 9.16724 64.9739 8.67038 63.8809 8.49294L63.3343 8.4397C62.8407 8.38647 62.4529 8.28 62.4529 7.94285C62.4529 7.55247 62.8407 7.33953 63.4401 7.33953C64.11 7.33953 64.7623 7.62345 65.0973 7.78315L65.5909 6.80719ZM96.4243 6.2571C95.7544 6.2571 95.3137 6.59426 95.0492 7.03787V6.36357H93.8857V11.7047H95.0492V8.70588C95.0492 7.81864 95.4371 7.32178 96.1599 7.32178C96.3891 7.32178 96.6535 7.37502 96.8827 7.42825L97.2176 6.31034C96.9708 6.25711 96.6359 6.2571 96.4243 6.2571ZM81.6158 9.02528C81.6158 10.64 82.7264 11.8112 84.4365 11.8112C85.2122 11.8112 85.7587 11.6515 86.3228 11.2079L85.7763 10.2674C85.3356 10.6046 84.8948 10.7643 84.4012 10.7643C83.4669 10.7643 82.797 10.09 82.797 9.04302C82.797 8.04932 83.4669 7.37502 84.4012 7.32178C84.8948 7.32178 85.3356 7.48149 85.7763 7.81864L86.3228 6.87817C85.7763 6.43455 85.2122 6.27485 84.4365 6.27485C82.7264 6.2571 81.6158 7.42825 81.6158 9.02528ZM92.3343 6.36357H91.1708V7.03787C90.783 6.54102 90.2365 6.2571 89.5137 6.2571C88.0152 6.2571 86.8693 7.42825 86.8693 9.04302C86.8693 10.6578 88.0328 11.8289 89.5137 11.8289C90.2894 11.8289 90.8359 11.545 91.1708 11.0482V11.7225H92.3343V6.36357ZM88.0857 9.02528C88.0857 8.08481 88.6851 7.30404 89.69 7.30404C90.6243 7.30404 91.2942 8.03157 91.2942 9.02528C91.2942 9.96575 90.6243 10.7465 89.69 10.7465C88.6851 10.6933 88.0857 9.98349 88.0857 9.02528ZM74.2115 6.2571C72.6602 6.2571 71.5672 7.37502 71.5672 9.04302C71.5672 10.711 72.6778 11.8289 74.2821 11.8289C75.0578 11.8289 75.8334 11.5983 76.4328 11.1014L75.8863 10.2674C75.4456 10.6046 74.8991 10.8175 74.3349 10.8175C73.6122 10.8175 72.907 10.4803 72.7307 9.53987H76.6444V9.09626C76.6973 7.35727 75.71 6.2571 74.2115 6.2571ZM74.2115 7.25081C74.9343 7.25081 75.428 7.69443 75.5337 8.52843H72.766C72.8894 7.81864 73.383 7.25081 74.2115 7.25081ZM103 4.25195H101.836V7.03787C101.449 6.54102 100.902 6.2571 100.179 6.2571C98.6809 6.2571 97.5349 7.42825 97.5349 9.04302C97.5349 10.6578 98.6985 11.8289 100.179 11.8289C100.955 11.8289 101.502 11.545 101.836 11.0482V11.7225H103V4.25195ZM98.7337 9.02528C98.7337 8.08481 99.3331 7.30404 100.338 7.30404C101.272 7.30404 101.942 8.03157 101.942 9.02528C101.942 9.96575 101.272 10.7465 100.338 10.7465C99.3508 10.6933 98.7337 9.98349 98.7337 9.02528ZM59.9672 6.36357H58.8036V7.03787C58.4158 6.54102 57.8693 6.2571 57.1465 6.2571C55.648 6.2571 54.5021 7.42825 54.5021 9.04302C54.5021 10.6578 55.6657 11.8289 57.1465 11.8289C57.9222 11.8289 58.4687 11.545 58.8036 11.0482V11.7225H59.9672V6.36357ZM55.6657 9.02528C55.6657 8.08481 56.265 7.30404 57.2699 7.30404C58.2043 7.30404 58.8742 8.03157 58.8742 9.02528C58.8742 9.96575 58.2043 10.7465 57.2699 10.7465C56.265 10.6933 55.6657 9.98349 55.6657 9.02528Z" fill="#000008"/>
</g>
</g>
</svg>
