<svg preserveAspectRatio="none" overflow="visible" style="display: block;" width="49.95" height="16.1842" viewBox="0 0 49.95 16.1842" fill="none" xmlns="http://www.w3.org/2000/svg">
<path id="path3789" d="M32.5343 0C28.9876 0 25.8182 1.83829 25.8182 5.23468C25.8182 9.12969 31.4393 9.39872 31.4393 11.3555C31.4393 12.1794 30.4951 12.9169 28.8825 12.9169C26.5938 12.9169 24.8833 11.8864 24.8833 11.8864L24.1513 15.3137C24.1513 15.3137 26.1219 16.1842 28.738 16.1842C32.6156 16.1842 35.6669 14.2556 35.6669 10.8012C35.6669 6.68538 30.0223 6.42434 30.0223 4.60816C30.0223 3.96275 30.7974 3.25557 32.4054 3.25557C34.2198 3.25557 35.7 4.00506 35.7 4.00506L36.4163 0.694834C36.4163 0.694834 34.8057 0 32.5343 0ZM0.0858784 0.249828L0 0.749484C0 0.749484 1.49208 1.02256 2.83594 1.56728C4.56627 2.19192 4.68953 2.55555 4.98095 3.68496L8.1565 15.9265H12.4133L18.9713 0.249828H14.7242L10.5103 10.9085L8.79082 1.87371C8.63313 0.839685 7.83435 0.249828 6.85661 0.249828H0.0858784ZM20.6791 0.249828L17.3474 15.9265H21.3974L24.7174 0.249828H20.6791ZM43.2671 0.249828C42.2905 0.249828 41.7731 0.772676 41.3934 1.68634L35.46 15.9265H39.707L40.5287 13.5532H45.7029L46.2026 15.9265H49.95L46.6808 0.249828H43.2671ZM43.8195 4.48519L45.0784 10.3679H41.7057L43.8195 4.48519Z" fill="#1434CB"/>
</svg>
